<svg xmlns="http://www.w3.org/2000/svg" xmlns:xlink="http://www.w3.org/1999/xlink" viewBox="0 0 726.14 850.22"><defs><style>.cls-1,.cls-10,.cls-11,.cls-12,.cls-13,.cls-26{fill:none;}.cls-2{clip-path:url(#clip-path);}.cls-3{fill:#dcdddd;}.cls-4{fill:#d5ecf0;}.cls-5{opacity:0;}.cls-6{fill:#8fc31f;}.cls-16,.cls-21,.cls-27,.cls-32,.cls-7{fill:#fff;}.cls-7{stroke:#595757;}.cls-10,.cls-11,.cls-12,.cls-13,.cls-14,.cls-15,.cls-16,.cls-17,.cls-18,.cls-19,.cls-20,.cls-21,.cls-22,.cls-26,.cls-27,.cls-31,.cls-7{stroke-miterlimit:10;}.cls-27,.cls-7{stroke-width:0.5px;}.cls-8{fill:#00a0e9;}.cls-9{fill:#efefef;}.cls-10{stroke:#fff;}.cls-10,.cls-11,.cls-12,.cls-13{stroke-width:3px;}.cls-11,.cls-12,.cls-13,.cls-14,.cls-15,.cls-16,.cls-17,.cls-18,.cls-19,.cls-20,.cls-21,.cls-22{stroke:#231815;}.cls-12{stroke-dasharray:12.57 12.57;}.cls-13{stroke-dasharray:12;}.cls-14{fill:#1c7038;}.cls-14,.cls-15,.cls-16,.cls-17,.cls-18,.cls-19,.cls-20,.cls-22{stroke-width:0.25px;}.cls-15{fill:#ee7e68;}.cls-17,.cls-23{fill:#231815;}.cls-18{fill:#e41512;}.cls-19{fill:#094;}.cls-20,.cls-25,.cls-31{fill:#e60012;}.cls-22{fill:#3e3a39;}.cls-23{font-size:12px;}.cls-23,.cls-28,.cls-29,.cls-30{font-family:KozGoPr6N-Regular-83pv-RKSJ-H, Kozuka Gothic Pr6N;}.cls-24{letter-spacing:0.25em;}.cls-26{stroke:#b5b5b6;stroke-width:2px;stroke-dasharray:3 3;}.cls-27{stroke:#2ea7e0;opacity:0.89;}.cls-28{font-size:3px;}.cls-28,.cls-30{fill:#727171;}.cls-29,.cls-30{font-size:5px;}.cls-29{fill:#898989;}.cls-31{stroke:#e60012;}.cls-32{font-size:6px;font-family:DFMaruGothic-SB-MP-RKSJ-H, DFPMaruGothic-SB;}</style><clipPath id="clip-path" transform="translate(106.51 322.29)"><rect class="cls-1" width="272.44" height="322.54"/></clipPath></defs><g id="レイヤー_2" data-name="レイヤー 2"><g id="レイヤー_1-2" data-name="レイヤー 1"><g class="cls-2"><g class="cls-2"><rect class="cls-3" x="106.51" y="322.15" width="272.44" height="322.54"/><rect class="cls-4" x="5.27" y="260.1" width="519.07" height="435.65"/><rect class="cls-3" x="244.5" y="547.51" width="35.01" height="2.34"/><image class="cls-5" width="737" height="584" transform="matrix(0.59, 0.1, -0.1, 0.59, 84.33, 279.38)" xlink:href="../%E3%82%A4%E3%82%BF%E3%83%AA%E3%82%A2%E6%96%99%E7%90%86%E3%82%A4%E3%83%AB%E3%83%92%E3%82%9A%E3%83%BC%E3%83%8E%20-%20Google%20%E3%83%9E%E3%83%83%E3%83%95%E3%82%9A.png"/><rect class="cls-3" x="361.85" y="316" width="17.1" height="369.98"/><rect class="cls-6" y="602.54" width="365.71" height="33.37"/><rect class="cls-7" x="220.39" y="328.58" width="80.78" height="17.56"/><rect class="cls-8" x="365.71" y="311.9" width="9.66" height="406.54"/><rect class="cls-3" x="55.32" y="397.95" width="453.95" height="5.27"/><rect class="cls-3" x="236.37" y="403.44" width="6.72" height="266.05"/><rect class="cls-3" x="279.51" y="403.22" width="2.78" height="276"/><rect class="cls-3" x="321.07" y="403.22" width="2.93" height="410.63"/><rect class="cls-3" x="194.63" y="290.16" width="5.95" height="389.06"/><rect class="cls-3" x="51.22" y="440.97" width="464.19" height="3.51"/><rect class="cls-3" x="78.15" y="421.07" width="201.37" height="2.93"/><rect class="cls-3" x="78.15" y="403.22" width="2.34" height="232.68"/><rect class="cls-3" x="115.02" y="322.15" width="4.1" height="322.54"/><rect class="cls-3" x="154.83" y="527.68" width="4.1" height="322.54"/><rect class="cls-3" x="155.41" y="322.15" width="3.51" height="120.59"/><rect class="cls-3" x="38.34" y="524.68" width="470.93" height="5.27"/><rect class="cls-3" x="301.17" y="444.49" width="5.27" height="82.83"/><rect class="cls-3" x="244.5" y="483.41" width="277.36" height="4.98"/><rect class="cls-3" x="240.64" y="463.8" width="41.65" height="2.93"/><rect class="cls-3" x="240.64" y="547.22" width="41.65" height="2.93"/><rect class="cls-3" x="260.78" y="465.27" width="2.34" height="62.05"/><rect class="cls-3" x="301.17" y="529.95" width="2.63" height="39.22"/><rect class="cls-3" x="341.61" y="444.34" width="2.63" height="39.22"/><rect class="cls-3" x="344.24" y="498.9" width="2.63" height="28.05"/><rect class="cls-3" x="238.74" y="164.37" width="2.63" height="14.21" transform="matrix(0.99, 0.14, -0.14, 0.99, 133.56, 289.65)"/><rect class="cls-3" x="20.2" y="563.9" width="501.66" height="5.27"/><rect class="cls-3" x="16.42" y="597.27" width="501.66" height="5.27"/><rect class="cls-3" x="10.52" y="39.95" width="80.54" height="2.01" transform="translate(102.54 327.77) rotate(-5.94)"/><rect class="cls-3" x="321.07" y="315.24" width="2.93" height="82.71"/><rect class="cls-3" x="324" y="353.61" width="37.85" height="2.99"/><rect class="cls-3" x="378.95" y="361.07" width="20.13" height="2.18"/><text x="106.51" y="322.29"/><rect class="cls-3" x="345.56" y="639.85" width="3.02" height="35.72"/><rect class="cls-3" x="240.64" y="657.51" width="80.43" height="2.1"/><rect class="cls-9" x="200.58" y="483.56" width="36.2" height="4.83"/><polyline class="cls-10" points="72 356.6 162.44 353.61 220.39 339.12"/><line class="cls-11" x1="72" y1="356.68" x2="78" y2="356.48"/><polyline class="cls-12" points="90.56 356.07 162.44 353.69 208.47 342.19"/><line class="cls-11" x1="214.57" y1="340.66" x2="220.39" y2="339.21"/><line class="cls-10" x1="301.17" y1="337.37" x2="523.02" y2="374.24"/><line class="cls-13" x1="301.17" y1="337.37" x2="523.02" y2="374.24"/><rect class="cls-3" x="148.61" y="57.61" width="2.94" height="22.39" transform="translate(183.09 243.26) rotate(38.94)"/><rect class="cls-3" x="262.1" y="359.54" width="16.68" height="24.8" rx="2.58"/><rect class="cls-9" x="264.81" y="362.62" width="11.24" height="19.32" rx="1.82"/></g><path class="cls-8" d="M59.69,130.78c1-6.07,10.72-4.43,10.72-4.43,11.51.75,11.88,10.9,11.88,10.9,2.28,15.06-5.5,14.58-5.5,14.58-8.53-.89-4.69-9.47-4.69-9.47,1.92-6.34-4.17-5.45-4.17-5.45C58.84,137,59.69,130.78,59.69,130.78Z" transform="translate(106.51 322.29)"/><path class="cls-8" d="M79.27,165.37c6.06,1,4.58,20.93,4.58,20.93-.87,11.51-10,12.32-10,12.32-15.08,2.13-18.59-3.11-18.59-3.11-3.8-5.85,9-14.36,9-14.36a2.46,2.46,0,0,0,.71-1.48C66.49,164.08,79.27,165.37,79.27,165.37Z" transform="translate(106.51 322.29)"/><path class="cls-14" d="M39.81,151.47h-12c0-4.11,2.69-7.44,6-7.44S39.81,147.36,39.81,151.47Z" transform="translate(106.51 322.29)"/><polygon class="cls-15" points="151.34 483.06 159.32 483.06 159.32 494.67 121.15 494.67 121.15 483.06 129.03 483.06 127.68 481.16 134.26 481.16 134.26 473.77 146.21 473.77 146.21 481.16 152.68 481.16 151.34 483.06"/><polyline class="cls-14" points="140.32 466.32 140.32 461.1 142.82 461.97 140.32 463.02"/><polygon class="cls-14" points="152.84 481.13 152.82 481.16 151.47 483.06 129.06 483.06 127.71 481.16 127.69 481.13 152.84 481.13"/><polygon class="cls-14" points="129.06 483.06 121.15 483.06 121.15 482.91 122.39 481.16 122.41 481.13 125.05 477.42 127.69 481.13 127.71 481.16 129.06 483.06"/><polygon class="cls-14" points="121.15 482.91 121.15 483.06 121.04 483.06 121.15 482.91"/><polygon class="cls-14" points="159.49 483.06 151.47 483.06 152.82 481.16 152.84 481.13 155.48 477.42 158.12 481.13 158.14 481.16 159.49 483.06"/><polygon class="cls-14" points="144.57 483.06 136.23 483.06 138.91 478.67 141.63 478.67 144.57 483.06"/><rect class="cls-15" x="121.15" y="483.06" width="7.69" height="11.61"/><rect class="cls-15" x="136.55" y="483.06" width="7.69" height="11.61"/><rect class="cls-15" x="151.64" y="483.06" width="7.69" height="11.61"/><line class="cls-15" x1="121.18" y1="488.86" x2="159.35" y2="488.86"/><rect class="cls-16" x="139.99" y="484.92" width="0.8" height="2.09"/><rect class="cls-16" x="139.83" y="475.33" width="0.8" height="2.09"/><rect class="cls-16" x="136.23" y="475.33" width="0.8" height="2.09"/><rect class="cls-16" x="143.12" y="475.33" width="0.8" height="2.09"/><rect class="cls-16" x="132.29" y="484.92" width="0.8" height="2.09"/><rect class="cls-17" x="139.15" y="491.58" width="2.5" height="3.09"/><rect class="cls-16" x="132.29" y="490.72" width="0.8" height="2.09"/><rect class="cls-16" x="147.54" y="484.92" width="0.8" height="2.09"/><rect class="cls-16" x="147.54" y="490.72" width="0.8" height="2.09"/><rect class="cls-16" x="154.19" y="484.92" width="0.8" height="2.09"/><rect class="cls-16" x="154.19" y="490.72" width="0.8" height="2.09"/><rect class="cls-16" x="156.2" y="484.92" width="0.8" height="2.09"/><rect class="cls-16" x="156.2" y="490.72" width="0.8" height="2.09"/><rect class="cls-16" x="123.56" y="484.92" width="0.8" height="2.09"/><rect class="cls-16" x="124.59" y="480.86" width="0.8" height="1.31"/><rect class="cls-16" x="139.99" y="480.86" width="0.8" height="1.31"/><rect class="cls-16" x="139.83" y="470.84" width="0.8" height="1.31"/><rect class="cls-16" x="155.08" y="480.86" width="0.8" height="1.31"/><rect class="cls-16" x="123.56" y="490.72" width="0.8" height="2.09"/><rect class="cls-16" x="125.57" y="484.92" width="0.8" height="2.09"/><rect class="cls-16" x="125.57" y="490.72" width="0.8" height="2.09"/><path class="cls-17" d="M32.64,169.23c0-2.08,2.5-2.11,2.5,0" transform="translate(106.51 322.29)"/><path class="cls-18" d="M254.55,302.16c-2.81-11-5.56-22.75-5.56-32.27h-3.45c0,3-.48,18.72-5.48,32.27l7.25-5.51Z" transform="translate(106.51 322.29)"/><rect class="cls-17" x="353.51" y="586.42" width="0.6" height="5.76"/><rect class="cls-19" x="347.41" y="613.93" width="12.8" height="3.83"/><rect class="cls-19" x="349.88" y="603.23" width="7.86" height="3.05"/><polygon class="cls-16" points="292.97 556.14 292.97 559.56 283.02 559.56 283.02 556.14 284.33 555.27 287.71 553.02 288 552.83 288.29 553.02 291.66 555.27 292.97 556.14"/><polygon class="cls-16" points="287.71 553.04 284.33 555.28 283.02 556.16 283.02 553.04 287.71 553.04"/><polygon class="cls-16" points="292.97 553.04 292.97 556.16 291.66 555.28 288.29 553.04 292.97 553.04"/><rect class="cls-16" x="286.17" y="547.71" width="3.65" height="5.12"/><polygon class="cls-20" points="290.51 547.51 290.51 549.03 289.13 549.03 288 547.83 286.87 549.03 285.49 549.03 285.49 547.51 286.69 547.51 288 545.95 289.32 547.51 290.51 547.51"/><polygon class="cls-20" points="293.46 552.66 293.46 555.28 291.66 555.28 288.29 553.04 288 552.84 287.71 553.04 284.33 555.28 282.54 555.28 282.54 552.66 293.46 552.66"/><polygon class="cls-20" points="294.94 556.2 293.03 556.2 292.97 556.16 291.66 555.28 288.29 553.04 288 552.84 287.71 553.04 284.33 555.28 283.02 556.16 282.97 556.2 281.05 556.2 282.54 555.21 283.02 554.88 285.79 553.04 286.37 552.66 286.73 552.42 288 551.57 289.27 552.42 289.63 552.66 290.2 553.04 292.97 554.88 293.46 555.21 294.94 556.2"/><circle class="cls-16" cx="288" cy="550.27" r="1.15"/><polyline class="cls-21" points="288.6 550.27 288 550.27 288 549.29"/><rect class="cls-22" x="283.86" y="557.84" width="0.61" height="1.32"/><rect class="cls-22" x="283.86" y="556.36" width="0.61" height="1.32"/><rect class="cls-22" x="285.5" y="557.85" width="0.61" height="1.32"/><rect class="cls-22" x="285.5" y="556.37" width="0.61" height="1.32"/><rect class="cls-22" x="289.82" y="557.84" width="0.61" height="1.32"/><rect class="cls-22" x="289.82" y="556.36" width="0.61" height="1.32"/><rect class="cls-22" x="287.33" y="557.07" width="1.27" height="2.5"/><rect class="cls-22" x="291.47" y="557.85" width="0.61" height="1.32"/><rect class="cls-22" x="291.47" y="556.37" width="0.61" height="1.32"/><polygon class="cls-20" points="288 556.33 287.04 557.07 288.96 557.07 288 556.33"/><text class="cls-23" transform="translate(234.61 342.05)">J<tspan class="cls-24" x="4.72" y="0">R</tspan><tspan x="14.63" y="0">札幌駅</tspan></text><polygon class="cls-25" points="262.06 534.11 263.98 538.01 268.29 538.63 265.17 541.66 265.91 545.95 262.06 543.93 258.21 545.95 258.95 541.66 255.84 538.63 260.14 538.01 262.06 534.11"/><line class="cls-26" x1="239.73" y1="347.24" x2="239.73" y2="674.66"/><line class="cls-26" x1="239.73" x2="239.73" y2="327.41"/><rect class="cls-27" x="226.54" y="624.89" width="26.38" height="18.84" rx="4.27"/><text class="cls-28" transform="translate(229.22 631.25)">南北線・東西線</text><text class="cls-29" transform="translate(232.19 638.81)">大通駅</text><rect class="cls-27" x="226.54" y="404.79" width="26.38" height="18.84" rx="4.27"/><text class="cls-28" transform="translate(235.15 411.16)">南北線</text><text class="cls-30" transform="translate(227.47 418.71)">さっぽろ駅</text><polygon class="cls-31" points="276.16 512.99 276.16 523.54 272.12 523.54 265.62 531.71 269.31 523.54 247.96 523.54 247.96 512.99 276.16 512.99"/><text class="cls-32" transform="translate(249.86 520.37) scale(0.81 1)">イルピーノ</text><text x="106.51" y="322.29"/></g></g></g></svg>